# xmcd
#
# Track frame offsets: 
#        150
#        11321
#        23081
#        31964
#        43094
#        50985
#        63769
#        72914
#        81748
#        91954
#        102470
#        110531
#        121245
#        129968
#        138124
#        148766
#
# Disc length: 2098 seconds
#
# Revision: 1
# Processed by: cddbd v1.5.1PL2 Copyright (c) Steve Scherf et al.
# Submitted via: ExactAudioCopy v0.95b3
#
DISCID=dd083010
DTITLE=Roger Miller - Oh Boy Classics Presents Roger Miller
DYEAR=2000
DGENRE=Country
TTITLE0=King Of The Road
TTITLE1=Walkin' In The Sunshine
TTITLE2=Billy Bayou
TTITLE3=Husbands And Wives
TTITLE4=Dang Me
TTITLE5=The Last Word In Lonesome Is Me
TTITLE6=Chug A Lug
TTITLE7=My Uncle Used To Love Me But She Died
TTITLE8=Engine Engine #9
TTITLE9=Kansas City Star
TTITLE10=Do-Wacka-Do
TTITLE11=Don't We All Have The Right To Be Wrong
TTITLE12=England Swings
TTITLE13=In The Summertime
TTITLE14=When Two Worlds Collide
TTITLE15=You Can't Rollerskate In A Buffalo Herd
EXTD=Oh Boy Records OBR-400
EXTT0=
EXTT1=
EXTT2=
EXTT3=
EXTT4=
EXTT5=
EXTT6=
EXTT7=
EXTT8=
EXTT9=
EXTT10=
EXTT11=
EXTT12=
EXTT13=
EXTT14=
EXTT15=
PLAYORDER=
